<svg width="64" height="64" viewBox="0 0 64 64" fill="none" xmlns="http://www.w3.org/2000/svg">
<path d="M47.6099 3.45996H14.7099L11.9299 7.10996V59.5L18.3599 54.25L24.8899 59.5L31.9999 53.82L38.3199 59.5L45.8899 54.36L51.6799 59.5V6.31996L47.6099 3.45996ZM25.6799 28.71C24.8033 28.7119 23.9459 28.4538 23.216 27.9682C22.4862 27.4827 21.9169 26.7915 21.58 25.9822C21.2432 25.1729 21.154 24.2818 21.3238 23.4219C21.4936 22.5619 21.9148 21.7716 22.5339 21.151C23.1531 20.5305 23.9424 20.1076 24.802 19.9358C25.6616 19.7641 26.5528 19.8512 27.3629 20.1862C28.173 20.5212 28.8654 21.089 29.3526 21.8177C29.8399 22.5465 30.0999 23.4034 30.0999 24.28C30.0999 25.4531 29.6346 26.5784 28.806 27.4089C27.9773 28.2394 26.8531 28.7073 25.6799 28.71V28.71ZM38.6799 41.71C37.8033 41.71 36.9464 41.4499 36.2177 40.9627C35.489 40.4755 34.9212 39.783 34.5862 38.9729C34.2512 38.1629 34.1641 37.2716 34.3358 36.412C34.5075 35.5524 34.9305 34.7631 35.551 34.1439C36.1715 33.5248 36.9618 33.1037 37.8218 32.9339C38.6818 32.7641 39.5729 32.8532 40.3822 33.1901C41.1915 33.5269 41.8826 34.0962 42.3682 34.8261C42.8538 35.5559 43.1119 36.4134 43.1099 37.29C43.1047 37.8713 42.9849 38.4458 42.7573 38.9807C42.5297 39.5157 42.1988 40.0004 41.7836 40.4073C41.3684 40.8141 40.877 41.1351 40.3375 41.3518C39.7981 41.5684 39.2212 41.6766 38.6399 41.67L38.6799 41.71Z" fill="#78B9EB" id="id_101"></path>
<path d="M48 2.5H16C14.5421 2.50264 13.1447 3.08295 12.1138 4.11383C11.083 5.14471 10.5026 6.54212 10.5 8V60C10.5019 60.2887 10.5866 60.5709 10.744 60.8129C10.9014 61.055 11.1249 61.2469 11.388 61.3658C11.6511 61.4848 11.9428 61.5257 12.2285 61.484C12.5142 61.4422 12.782 61.3193 13 61.13L18.69 56.21L24.37 61.13C24.645 61.376 25.001 61.512 25.37 61.512C25.739 61.512 26.095 61.376 26.37 61.13L32 56.21L37.68 61.13C37.955 61.376 38.311 61.512 38.68 61.512C39.049 61.512 39.405 61.376 39.68 61.13L45.36 56.21L51 61.13C51.218 61.3193 51.4857 61.4422 51.7715 61.484C52.0572 61.5257 52.3489 61.4848 52.612 61.3658C52.8751 61.2469 53.0986 61.055 53.256 60.8129C53.4134 60.5709 53.4981 60.2887 53.5 60V8C53.4974 6.54212 52.917 5.14471 51.8862 4.11383C50.8553 3.08295 49.4579 2.50264 48 2.5V2.5ZM50.5 56.72L46.32 53.09C46.045 52.844 45.689 52.708 45.32 52.708C44.951 52.708 44.595 52.844 44.32 53.09L38.67 58L33 53.09C32.724 52.8461 32.3684 52.7114 32 52.7114C31.6316 52.7114 31.276 52.8461 31 53.09L25.33 58L19.65 53.07C19.375 52.824 19.019 52.688 18.65 52.688C18.281 52.688 17.925 52.824 17.65 53.07L13.5 56.72V8C13.5 7.33696 13.7634 6.70107 14.2322 6.23223C14.7011 5.76339 15.337 5.5 16 5.5H48C48.663 5.5 49.2989 5.76339 49.7678 6.23223C50.2366 6.70107 50.5 7.33696 50.5 8V56.72Z" fill="#006DF0" id="id_102"></path>
<path d="M31.1699 24.2798C31.1699 23.1916 30.8471 22.1278 30.2423 21.2231C29.6375 20.3184 28.7779 19.6135 27.7724 19.1975C26.7668 18.7815 25.6604 18.6732 24.5932 18.8862C23.5261 19.0992 22.5461 19.6241 21.7773 20.3942C21.0085 21.1644 20.4855 22.1454 20.2744 23.2129C20.0633 24.2805 20.1736 25.3867 20.5915 26.3915C21.0093 27.3963 21.7158 28.2546 22.6216 28.8577C23.5274 29.4609 24.5917 29.7818 25.6799 29.7798C26.4017 29.7798 27.1164 29.6374 27.7832 29.3609C28.4499 29.0844 29.0556 28.6791 29.5655 28.1683C30.0754 27.6574 30.4796 27.051 30.7549 26.3838C31.0302 25.7165 31.1712 25.0016 31.1699 24.2798V24.2798ZM23.1699 24.2798C23.1699 23.7853 23.3165 23.302 23.5913 22.8909C23.866 22.4797 24.2564 22.1593 24.7132 21.9701C25.17 21.7809 25.6727 21.7314 26.1577 21.8278C26.6426 21.9243 27.0881 22.1624 27.4377 22.512C27.7873 22.8616 28.0254 23.3071 28.1219 23.7921C28.2184 24.277 28.1688 24.7797 27.9796 25.2365C27.7904 25.6933 27.47 26.0837 27.0589 26.3585C26.6477 26.6332 26.1644 26.7798 25.6699 26.7798C25.0086 26.7771 24.3753 26.5126 23.9086 26.044C23.4419 25.5755 23.1799 24.9411 23.1799 24.2798H23.1699Z" fill="#006DF0" id="id_103"></path>
<path d="M38.3201 32.2202C37.2323 32.2202 36.1689 32.5428 35.2644 33.1471C34.36 33.7515 33.655 34.6105 33.2387 35.6155C32.8225 36.6204 32.7135 37.7263 32.9258 38.7932C33.138 39.8601 33.6618 40.8401 34.431 41.6093C35.2002 42.3785 36.1802 42.9023 37.2471 43.1145C38.314 43.3268 39.4198 43.2178 40.4248 42.8016C41.4298 42.3853 42.2888 41.6803 42.8932 40.7758C43.4975 39.8714 43.8201 38.808 43.8201 37.7202C43.8201 36.2615 43.2406 34.8626 42.2092 33.8311C41.1777 32.7997 39.7788 32.2202 38.3201 32.2202ZM38.3201 40.2202C37.8252 40.2202 37.3414 40.0733 36.9301 39.7982C36.5188 39.523 36.1984 39.132 36.0094 38.6746C35.8205 38.2172 35.7716 37.714 35.8689 37.2288C35.9661 36.7436 36.2052 36.2981 36.5559 35.9489C36.9065 35.5997 37.3529 35.3624 37.8385 35.267C38.3241 35.1717 38.8271 35.2226 39.2837 35.4134C39.7404 35.6042 40.1301 35.9261 40.4036 36.3386C40.6771 36.751 40.822 37.2353 40.8201 37.7302C40.8148 38.3898 40.5491 39.0205 40.0808 39.4851C39.6125 39.9496 38.9797 40.2102 38.3201 40.2102V40.2202Z" fill="#006DF0" id="id_104"></path>
<path d="M41 22.0498C40.8615 21.9095 40.6964 21.7981 40.5144 21.7221C40.3325 21.6461 40.1372 21.6069 39.94 21.6069C39.7428 21.6069 39.5476 21.6461 39.3656 21.7221C39.1837 21.7981 39.0186 21.9095 38.88 22.0498L23.05 37.8298C22.9097 37.9684 22.7984 38.1334 22.7223 38.3154C22.6463 38.4974 22.6072 38.6926 22.6072 38.8898C22.6072 39.087 22.6463 39.2822 22.7223 39.4642C22.7984 39.6461 22.9097 39.8112 23.05 39.9498C23.3317 40.2303 23.7126 40.3884 24.11 40.3898C24.5009 40.4039 24.8816 40.2639 25.17 39.9998L41 24.1698C41.1403 24.0312 41.2517 23.8661 41.3277 23.6842C41.4038 23.5022 41.4429 23.307 41.4429 23.1098C41.4429 22.9126 41.4038 22.7174 41.3277 22.5354C41.2517 22.3534 41.1403 22.1884 41 22.0498V22.0498Z" fill="#006DF0" id="id_105"></path>
</svg>