<?xml version="1.0" encoding="UTF-8" standalone="no"?>
<svg
   xmlns:dc="http://purl.org/dc/elements/1.1/"
   xmlns:cc="http://creativecommons.org/ns#"
   xmlns:rdf="http://www.w3.org/1999/02/22-rdf-syntax-ns#"
   xmlns:svg="http://www.w3.org/2000/svg"
   xmlns="http://www.w3.org/2000/svg"
   xmlns:sodipodi="http://sodipodi.sourceforge.net/DTD/sodipodi-0.dtd"
   xmlns:inkscape="http://www.inkscape.org/namespaces/inkscape"
   version="1.1"
   id="svg2"
   xml:space="preserve"
   width="1075.832"
   height="983.95068"
   viewBox="0 0 1075.832 983.95068"
   sodipodi:docname="icons.ai"><metadata
     id="metadata8"><rdf:RDF><cc:Work
         rdf:about=""><dc:format>image/svg+xml</dc:format><dc:type
           rdf:resource="http://purl.org/dc/dcmitype/StillImage" /></cc:Work></rdf:RDF></metadata><defs
     id="defs6"><clipPath
       clipPathUnits="userSpaceOnUse"
       id="clipPath18"><path
         d="M 0,737.963 H 806.874 V 0 H 0 Z"
         id="path16" /></clipPath><clipPath
       clipPathUnits="userSpaceOnUse"
       id="clipPath34"><path
         d="M 0,737.963 H 806.874 V 0 H 0 Z"
         id="path32" /></clipPath><clipPath
       clipPathUnits="userSpaceOnUse"
       id="clipPath58"><path
         d="M 0,737.963 H 806.874 V 0 H 0 Z"
         id="path56" /></clipPath><clipPath
       clipPathUnits="userSpaceOnUse"
       id="clipPath74"><path
         d="M 0,737.963 H 806.874 V 0 H 0 Z"
         id="path72" /></clipPath><clipPath
       clipPathUnits="userSpaceOnUse"
       id="clipPath90"><path
         d="M 0,737.963 H 806.874 V 0 H 0 Z"
         id="path88" /></clipPath><clipPath
       clipPathUnits="userSpaceOnUse"
       id="clipPath106"><path
         d="M 0,737.963 H 806.874 V 0 H 0 Z"
         id="path104" /></clipPath><clipPath
       clipPathUnits="userSpaceOnUse"
       id="clipPath140"><path
         d="M 0,737.963 H 806.874 V 0 H 0 Z"
         id="path138" /></clipPath><clipPath
       clipPathUnits="userSpaceOnUse"
       id="clipPath160"><path
         d="M 0,737.963 H 806.874 V 0 H 0 Z"
         id="path158" /></clipPath><clipPath
       clipPathUnits="userSpaceOnUse"
       id="clipPath184"><path
         d="M 0,737.963 H 806.874 V 0 H 0 Z"
         id="path182" /></clipPath><clipPath
       clipPathUnits="userSpaceOnUse"
       id="clipPath200"><path
         d="M 0,737.963 H 806.874 V 0 H 0 Z"
         id="path198" /></clipPath><clipPath
       clipPathUnits="userSpaceOnUse"
       id="clipPath220"><path
         d="M 0,737.963 H 806.874 V 0 H 0 Z"
         id="path218" /></clipPath><clipPath
       clipPathUnits="userSpaceOnUse"
       id="clipPath256"><path
         d="M 0,737.963 H 806.874 V 0 H 0 Z"
         id="path254" /></clipPath><clipPath
       clipPathUnits="userSpaceOnUse"
       id="clipPath272"><path
         d="M 0,737.963 H 806.874 V 0 H 0 Z"
         id="path270" /></clipPath><clipPath
       clipPathUnits="userSpaceOnUse"
       id="clipPath308"><path
         d="M 0,737.963 H 806.874 V 0 H 0 Z"
         id="path306" /></clipPath></defs><sodipodi:namedview
     pagecolor="#ffffff"
     bordercolor="#666666"
     borderopacity="1"
     objecttolerance="10"
     gridtolerance="10"
     guidetolerance="10"
     inkscape:pageopacity="0"
     inkscape:pageshadow="2"
     inkscape:window-width="640"
     inkscape:window-height="480"
     id="namedview4" /><g
     id="g10"
     inkscape:groupmode="layer"
     inkscape:label="icons"
     transform="matrix(1.3333333,0,0,-1.3333333,0,983.95067)"><g
       id="g12"><g
         id="g14"
         clip-path="url(#clipPath18)"><g
           id="g20"
           transform="translate(176.9048,640.5581)"><path
             d="m 0,0 c 0,-39.765 -32.235,-72 -72,-72 -39.765,0 -72,32.235 -72,72 0,39.765 32.235,72 72,72 C -32.235,72 0,39.765 0,0"
             style="fill:#000;fill-opacity:1;fill-rule:nonzero;"
             id="path22" /></g><g
           id="g24"
           transform="translate(113.5171,586.5581)"><path
             d="m 0,0 h -20.141 v 49.292 c -5.476,0.177 -11.659,-0.353 -16.696,0.265 0.174,6.276 -0.349,13.248 0.266,19.08 h 16.43 c -1.176,18.168 0.768,31.29 12.455,36.837 6.703,3.181 17.527,2.924 27.297,1.59 C 19.434,101.41 19.964,95.051 19.346,89.838 12.461,89.205 5.349,91.408 1.854,87.718 -1.851,83.804 0.848,75.87 0,68.637 6.183,68.461 13.074,68.991 18.815,68.373 17.947,61.997 17.482,55.219 16.166,49.292 H 0 Z"
             style="fill:#ffffff;fill-opacity:1;fill-rule:evenodd;"
             id="path26" /></g></g></g><g
       id="g28"><g
         id="g30"
         clip-path="url(#clipPath34)"><g
           id="g36"
           transform="translate(376.874,650.4697)"><path
             d="m 0,0 c 0,-39.765 -32.235,-72 -72,-72 -39.765,0 -72,32.235 -72,72 0,39.765 32.235,72 72,72 C -32.235,72 0,39.765 0,0"
             style="fill:#000;fill-opacity:1;fill-rule:nonzero;"
             id="path38" /></g><g
           id="g40"
           transform="translate(340.8032,673.2798)"><path
             d="m 0,0 c 1.372,1.23 0.874,5.255 0.874,7.427 0,2.406 0.414,5.923 -1.311,6.99 -1.854,1.148 -9.437,1.018 -11.795,0.437 -3.012,-0.741 -2.402,-4.813 -2.402,-8.956 0,-2.597 -0.262,-5.293 1.31,-6.335 C -9.626,0.098 -2.434,-2.184 0,0 m -63.128,22.062 h 2.184 V 0 c 0.806,-0.504 2.545,-0.077 3.714,-0.218 v 22.28 c 15.325,-1 35.932,1.333 50.24,0 C 6.227,20.831 10.356,8.914 8.738,-7.208 h -13.98 c -4.443,0 -9.69,-0.981 -13.762,0 -1.897,0.457 -3.144,2.574 -4.587,3.495 -7.475,4.773 -18.99,4.222 -25.994,-0.873 -1.026,-0.747 -2.083,-2.313 -3.277,-2.622 -3.545,-0.919 -9.897,0 -13.979,0 h -13.762 c -0.793,11.715 0.381,22.628 7.427,25.776 V 0 c 0.805,-0.504 2.545,-0.077 3.713,-0.218 0.146,6.989 -0.291,14.562 0.219,21.188 0.811,0.135 1.372,0.521 2.184,0.656 L -67.06,0 c 0.805,-0.504 2.544,-0.077 3.713,-0.218 v 21.625 c -0.018,0.31 -0.036,0.618 0.219,0.655"
             style="fill:#fdfefd;fill-opacity:1;fill-rule:evenodd;"
             id="path42" /></g><g
           id="g44"
           transform="translate(293.1836,643.791)"><path
             d="M 0,0 C 1.003,-1.913 3.301,-4.328 5.461,-5.461 12.518,-9.16 20.856,-4.802 23.374,0 28.923,10.588 19.54,19.82 10.923,19.223 1.708,18.584 -4.655,8.88 0,0 M 9.393,23.591 C 20.671,24.946 29.245,16.714 29.271,6.334 29.31,-9.15 12.274,-15.678 1.53,-8.3 -2.927,-5.24 -7.764,2.47 -5.46,10.922 -3.88,16.721 1.427,22.634 9.393,23.591"
             style="fill:#fdfefd;fill-opacity:1;fill-rule:evenodd;"
             id="path46" /></g><g
           id="g48"
           transform="translate(260.4185,663.2314)"><path
             d="m 0,0 h 25.121 c 0.152,-0.846 -0.625,-1.715 -1.093,-2.621 -0.497,-0.963 -0.956,-2.027 -1.31,-3.058 -5.107,-14.84 5.364,-28.956 18.566,-30.362 12.015,-1.279 21.05,5.647 24.466,13.979 2.876,7.018 1.352,16.706 -2.185,22.062 h 25.558 v -21.188 c 0,-9.527 1.302,-20.663 -1.748,-26.868 -2.109,-4.292 -7.485,-8.963 -13.762,-9.611 -8.515,-0.879 -19.112,0 -29.271,0 H 29.707 c -8.4,0 -16.909,-0.528 -21.843,2.622 -3.749,2.394 -7.468,7.324 -8.082,12.669 -0.734,6.379 0,13.732 0,20.97 V -0.654 C -0.238,-0.344 -0.254,-0.035 0,0"
             style="fill:#fdfefd;fill-opacity:1;fill-rule:evenodd;"
             id="path50" /></g></g></g><g
       id="g52"><g
         id="g54"
         clip-path="url(#clipPath58)"><g
           id="g60"
           transform="translate(170.9053,462.0703)"><path
             d="m 0,0 c 0,-39.765 -32.235,-72 -72,-72 -39.765,0 -72,32.235 -72,72 0,39.765 32.235,72 72,72 C -32.235,72 0,39.765 0,0"
             style="fill:#000;fill-opacity:1;fill-rule:nonzero;"
             id="path62" /></g><g
           id="g64"
           transform="translate(78.8701,418.1855)"><path
             d="m 0,0 c -12.513,0 -24.159,3.668 -33.965,9.954 1.734,-0.204 3.497,-0.308 5.285,-0.308 10.381,0 19.936,3.542 27.519,9.484 -9.696,0.18 -17.879,6.585 -20.698,15.389 1.352,-0.259 2.74,-0.398 4.169,-0.398 2.02,0 3.977,0.271 5.836,0.776 -10.135,2.037 -17.773,10.992 -17.773,21.727 0,0.094 0,0.187 0.002,0.279 2.987,-1.66 6.403,-2.657 10.036,-2.771 -5.945,3.973 -9.857,10.755 -9.857,18.442 0,4.061 1.092,7.867 3,11.139 10.927,-13.405 27.255,-22.227 45.67,-23.15 -0.378,1.622 -0.575,3.313 -0.575,5.049 0,12.237 9.921,22.158 22.159,22.158 6.373,0 12.131,-2.691 16.173,-6.998 5.047,0.994 9.789,2.838 14.07,5.377 -1.655,-5.174 -5.167,-9.516 -9.742,-12.258 4.482,0.535 8.752,1.726 12.726,3.488 -2.972,-4.443 -6.727,-8.346 -11.056,-11.47 0.042,-0.95 0.063,-1.905 0.063,-2.866 C 63.042,33.763 40.756,0 0,0"
             style="fill:#ffffff;fill-opacity:1;fill-rule:nonzero;"
             id="path66" /></g></g></g><g
       id="g68"><g
         id="g70"
         clip-path="url(#clipPath74)"><g
           id="g76"
           transform="translate(376.874,462.0703)"><path
             d="m 0,0 c 0,-39.765 -32.235,-72 -72,-72 -39.765,0 -72,32.235 -72,72 0,39.765 32.235,72 72,72 C -32.235,72 0,39.765 0,0"
             style="fill:#000;fill-opacity:1;fill-rule:nonzero;"
             id="path78" /></g><g
           id="g80"
           transform="translate(289.7627,410.2705)"><path
             d="m 0,0 c 4.456,6.989 6.579,16.312 8.815,25.521 1.084,0.379 1.605,-1.287 2.553,-2.088 1.986,-1.681 5.6,-3.37 8.816,-3.713 11.89,-1.266 20.027,5.479 24.591,12.296 4.079,6.089 6.756,14.895 6.729,24.36 C 51.45,75.169 36.346,86.445 19.952,87.464 -3.027,88.892 -21.385,73.903 -21.576,54.056 -21.681,43.17 -17.843,36.213 -9.28,32.944 c 1.751,1.136 2.995,4.425 2.784,6.96 -0.212,2.552 -2.654,4.042 -3.48,6.264 -0.496,1.333 -0.809,3.22 -0.928,4.64 C -11.8,61.569 -6.45,69.724 1.624,74.472 8.537,78.538 21.179,80.389 30.16,74.24 37.29,69.357 39.756,57.944 36.888,46.168 35.011,38.461 30.04,28.654 20.648,29 c -3.593,0.133 -7.66,2.775 -8.352,6.728 -1.233,7.043 5.621,14.791 5.104,23.432 -0.291,4.855 -3.277,8.631 -9.512,7.193 C 2.151,65.028 -1.083,58.006 -0.464,50.576 -0.275,48.317 1.057,46.314 1.16,44.08 1.29,41.268 -0.456,36.826 -1.16,33.872 -3.542,23.882 -6.783,14.615 -6.728,2.553 -17.59,7.593 -25.7,14.537 -31.552,24.36 c -5.921,9.939 -9.153,23.345 -6.263,37.816 2.471,12.382 8.388,22.295 16.704,29.696 8.062,7.177 19.953,12.96 33.639,13.688 C 30.97,106.54 45.299,98.509 54.52,88.624 63.795,78.681 70.994,63.379 68.672,44.776 66.658,28.643 57.973,15.937 46.632,7.889 35.77,0.18 18.118,-5.152 0,0"
             style="fill:#ffffff;fill-opacity:1;fill-rule:evenodd;"
             id="path82" /></g></g></g><g
       id="g84"><g
         id="g86"
         clip-path="url(#clipPath90)"><g
           id="g92"
           transform="translate(181.4932,272.1885)"><path
             d="m 0,0 c 0,-39.766 -32.235,-72 -72,-72 -39.765,0 -72,32.234 -72,72 0,39.764 32.235,72 72,72 C -32.235,72 0,39.764 0,0"
             style="fill:#000;fill-opacity:1;fill-rule:nonzero;"
             id="path94" /></g><g
           id="g96"
           transform="translate(107.1284,259.3779)"><path
             d="m 0,0 c -2.002,3.661 -4.431,6.897 -6.203,10.788 0.754,2.299 1.188,3.19 1.348,5.125 1.87,22.591 -31.283,23.826 -33.443,3.775 -1.324,-12.281 8.662,-20.996 21.306,-18.339 5.795,-4.724 10.859,-10.179 16.722,-14.834 11.914,9.509 25.905,21.151 38.298,31.286 1.928,1.575 4.93,3.052 5.394,4.585 0.664,2.188 0.395,20.984 -0.539,22.655 C 28.682,30.114 14.305,13.924 0,0 m 44.771,50.435 c 0.477,-3.272 1.448,-26.253 0.27,-29.938 -0.674,-2.106 -7.977,-6.702 -9.709,-8.09 -3.51,-2.812 -6.509,-5.434 -9.71,-7.822 0,0 2.074,-2.459 2.427,-3.236 -8.967,-8.564 -17.463,-17.599 -26.431,-26.162 -8.338,7.305 -15.62,15.666 -23.734,23.195 -10.588,1.053 -17.612,7.061 -18.61,16.721 -1.159,11.229 7.021,21.092 18.07,21.577 10.455,0.459 15.861,-5.591 19.15,-12.946 L 1.348,28.05 12.946,16.991 c 10.95,10.806 21.373,22.14 31.825,33.444"
             style="fill:#ffffff;fill-opacity:1;fill-rule:evenodd;"
             id="path98" /></g></g></g><g
       id="g100"><g
         id="g102"
         clip-path="url(#clipPath106)"><g
           id="g108"
           transform="translate(376.874,270.5186)"><path
             d="m 0,0 c 0,-39.765 -32.235,-72 -72,-72 -39.765,0 -72,32.235 -72,72 0,39.765 32.235,72 72,72 C -32.235,72 0,39.765 0,0"
             style="fill:#000;fill-opacity:1;fill-rule:nonzero;"
             id="path110" /></g><g
           id="g112"
           transform="translate(322.7871,299.2188)"><path
             d="M 0,0 C 4.359,-0.828 10.242,-0.133 15.2,-0.361 16.7,8.773 -0.109,9.794 0,0 M 24.971,-6.151 C 16.765,-6.389 7.607,-5.675 0,-6.514 c -0.993,-9.634 13.357,-11.113 16.285,-3.98 h 7.963 c -4.2,-18.272 -36.334,-15.447 -33.657,9.41 0.83,7.693 6.8,15.123 16.647,15.56 12.158,0.54 17.833,-7.984 17.733,-20.627"
             style="fill:#ffffff;fill-opacity:1;fill-rule:evenodd;"
             id="path114" /></g><g
           id="g116"
           transform="translate(261.9888,312.6094)"><path
             d="m 0,0 h 10.133 c 2.135,-7.877 4.017,-16.008 6.515,-23.523 1.759,8.011 3.688,15.854 5.79,23.523 h 9.047 c 2.268,-7.504 3.643,-15.898 6.151,-23.162 2.263,7.63 3.973,15.81 6.517,23.162 3.015,-0.238 6.992,0.479 9.407,-0.361 -3.518,-11.562 -7.071,-23.085 -10.856,-34.381 h -9.771 c -2.184,7.587 -3.472,16.07 -6.513,22.8 -1.712,-7.819 -3.478,-15.584 -5.791,-22.8 H 10.857 C 7.346,-23.296 3.919,-11.764 0,-0.723 Z"
             style="fill:#ffffff;fill-opacity:1;fill-rule:evenodd;"
             id="path118" /></g><path
           d="m 316.878,272.188 h 8.313 v -7.034 h -8.313 z"
           style="fill:#ffffff;fill-opacity:1;fill-rule:evenodd;"
           id="path120" /><g
           id="g122"
           transform="translate(346.1318,261.958)"><path
             d="m 0,0 v -5.436 h -5.755 c -0.548,-5.239 -0.512,-12.66 0,-17.904 0.983,-1.123 4.042,-1.237 5.755,-0.639 v -6.714 c -6.281,-0.426 -12.081,-0.94 -14.068,3.836 -2.232,5.363 0.326,13.978 -0.639,21.421 -1.605,0.208 -5.116,0.32 -5.116,0.32 V 0 h 5.116 v 9.273 c 2.772,-0.21 6.392,0.425 8.633,-0.319 l 0,-8.954 z"
             style="fill:#ffffff;fill-opacity:1;fill-rule:evenodd;"
             id="path124" /></g><g
           id="g126"
           transform="translate(288.0464,266.3291)"><path
             d="m 0,0 c 9.249,8.772 24.828,4.731 25.58,-8.313 0.691,-12.023 -9.013,-20.387 -16.628,-25.58 -2.061,-1.406 -6.288,-5.001 -8.633,-5.115 -2.368,-0.115 -6.386,3.358 -8.952,5.115 -7.478,5.128 -16.87,13.292 -16.946,24.3 C -25.673,4.308 -9.603,8.972 0,0"
             style="fill:#ffffff;fill-opacity:1;fill-rule:evenodd;"
             id="path128" /></g><g
           id="g130"
           transform="translate(325.1904,261.6904)"><path
             d="M 0,0 V -30.692 H -8.313 L -8.373,0 Z"
             style="fill:#ffffff;fill-opacity:1;fill-rule:evenodd;"
             id="path132" /></g></g></g><g
       id="g134"><g
         id="g136"
         clip-path="url(#clipPath140)"><g
           id="g142"
           transform="translate(368.874,92.0703)"><path
             d="m 0,0 c 0,-39.766 -32.235,-72 -72,-72 -39.765,0 -72,32.234 -72,72 0,39.765 32.235,72 72,72 C -32.235,72 0,39.765 0,0"
             style="fill:#000;fill-opacity:1;fill-rule:nonzero;"
             id="path144" /></g><g
           id="g146"
           transform="translate(293.3857,92.0703)"><path
             d="m 0,0 c 0,-13.948 -11.307,-25.256 -25.256,-25.256 -13.948,0 -25.256,11.308 -25.256,25.256 0,13.948 11.308,25.256 25.256,25.256 C -11.307,25.256 0,13.948 0,0"
             style="fill:#ffffff;fill-opacity:1;fill-rule:evenodd;"
             id="path148" /></g><g
           id="g150"
           transform="translate(350.874,92.0703)"><path
             d="m 0,0 c 0,-13.948 -11.308,-25.256 -25.256,-25.256 -13.948,0 -25.256,11.308 -25.256,25.256 0,13.948 11.308,25.256 25.256,25.256 C -11.308,25.256 0,13.948 0,0"
             style="fill:#ffffff;fill-opacity:1;fill-rule:evenodd;"
             id="path152" /></g></g></g><g
       id="g154"><g
         id="g156"
         clip-path="url(#clipPath160)"><g
           id="g162"
           transform="translate(604.6553,634.5581)"><path
             d="m 0,0 c 0,-39.765 -32.235,-72 -72,-72 -39.765,0 -72,32.235 -72,72 0,39.765 32.235,72 72,72 C -32.235,72 0,39.765 0,0"
             style="fill:#000;fill-opacity:1;fill-rule:nonzero;"
             id="path164" /></g><g
           id="g166"
           transform="translate(499.2275,677.5127)"><path
             d="m 0,0 c 4.202,0.271 7.954,-2.493 9.344,-4.729 4.252,-6.839 -0.72,-15.01 -7.431,-15.761 -8.01,-0.896 -14.318,7.259 -10.582,14.861 C -7.323,-2.89 -4.095,-0.263 0,0"
             style="fill:#ffffff;fill-opacity:1;fill-rule:evenodd;"
             id="path168" /></g><g
           id="g170"
           transform="translate(575.5566,591.7261)"><path
             d="m 0,0 c -5.592,-0.188 -11.97,-0.188 -17.563,0 -0.204,5.611 -0.112,11.806 -0.112,18.014 0,10.117 1.61,22.557 -6.304,24.766 -5.279,1.475 -10.061,-0.861 -11.933,-4.051 -2.667,-4.547 -1.914,-12.663 -1.914,-20.603 0,-6.452 0.091,-13.038 -0.112,-18.238 h -17.451 c -0.263,18.876 -0.038,38.239 -0.113,57.302 h 16.887 c 0.261,-2.365 0.039,-5.214 0.114,-7.767 0.709,0.352 1.056,1.121 1.462,1.689 2.843,3.975 7.552,7.063 14.073,7.543 7.091,0.522 12.551,-1.303 16.099,-4.391 C -3.17,51.048 -1.281,46.249 -0.45,40.191 1.169,28.393 -0.404,13.304 0,0"
             style="fill:#ffffff;fill-opacity:1;fill-rule:evenodd;"
             id="path172" /></g><g
           id="g174"
           transform="translate(491.1221,648.9165)"><path
             d="m 0,0 h 17.449 v -57.19 c -5.592,-0.188 -11.97,-0.188 -17.562,0 V -0.337 C -0.123,-0.177 -0.132,-0.019 0,0"
             style="fill:#ffffff;fill-opacity:1;fill-rule:evenodd;"
             id="path176" /></g></g></g><g
       id="g178"><g
         id="g180"
         clip-path="url(#clipPath184)"><g
           id="g186"
           transform="translate(592.0361,433.9551)"><path
             d="m 0,0 c 0,-39.765 -32.235,-72 -72,-72 -39.765,0 -72,32.235 -72,72 0,39.765 32.235,72 72,72 C -32.235,72 0,39.765 0,0"
             style="fill:#000;fill-opacity:1;fill-rule:nonzero;"
             id="path188" /></g><g
           id="g190"
           transform="translate(525.5361,487.7598)"><path
             d="m 0,0 c 0.328,-7.522 0.047,-15.651 0.141,-23.408 7.99,-0.094 16.357,0.187 24.113,-0.142 v -18.472 c -7.709,-0.33 -16.027,-0.048 -23.973,-0.142 0.153,-10.085 -0.685,-22.33 -0.14,-32.151 0.127,-2.303 0.328,-4.905 1.127,-6.769 1.476,-3.434 5.951,-5.191 10.154,-5.076 5.105,0.139 9.066,2.711 13.537,3.384 0.234,-6.912 0.236,-14.806 0,-21.716 -1.83,-1.147 -4.121,-1.498 -6.346,-1.975 -6.646,-1.424 -14.877,-1.929 -22.281,-0.423 -11.319,2.304 -20.151,8.808 -21.152,21.998 -0.52,6.873 0,14.227 0,21.435 0,7.148 0.107,14.25 -0.14,21.293 h -10.999 c -0.235,5.879 -0.235,12.735 0,18.614 11.776,0.711 17.962,8.653 20.165,19.32 0.256,1.242 0.496,2.926 0.987,4.089 C -10.475,0.419 -4.567,0.142 0,0"
             style="fill:#ffffff;fill-opacity:1;fill-rule:evenodd;"
             id="path192" /></g></g></g><g
       id="g194"><g
         id="g196"
         clip-path="url(#clipPath200)"><g
           id="g202"
           transform="translate(593.2397,257.3145)"><path
             d="m 0,0 c 0,-39.764 -32.235,-72 -72,-72 -39.765,0 -72,32.236 -72,72 0,39.765 32.235,72 72,72 C -32.235,72 0,39.765 0,0"
             style="fill:#000;fill-opacity:1;fill-rule:nonzero;"
             id="path204" /></g><g
           id="g206"
           transform="translate(481.5493,235.7432)"><path
             d="M 0,0 C -7.218,-22.345 40.547,-27.736 38.949,-5.107 38.492,1.356 29.866,9.294 24.264,10.217 22.208,10.555 20.831,9.693 19.155,9.578 8.224,8.824 1.831,5.666 0,0 M 19.155,28.733 C 40.588,26.62 32.823,66.865 14.048,62.574 -2.045,58.895 7.093,29.922 19.155,28.733 M 46.61,66.404 C 44.105,63.802 40.189,62.61 34.479,63.212 37.665,57.63 45.467,50.03 40.864,38.949 37.81,31.595 28.556,30.121 28.732,23.625 28.911,17.097 42.038,12.028 44.695,6.386 59.893,-25.882 -13.274,-35.882 -10.216,-5.107 -8.906,8.069 5.808,11.374 21.071,12.771 20.613,15.658 15.969,20.954 19.155,26.179 3.925,24.636 -4.359,33.721 -4.47,44.057 -4.713,67.088 21.724,67.759 46.61,66.404"
             style="fill:#ffffff;fill-opacity:1;fill-rule:evenodd;"
             id="path208" /></g><g
           id="g210"
           transform="translate(571.2397,285.5469)"><path
             d="M 0,0 H -15.323 V 15.323 H -21.07 V 0 H -36.395 V -5.747 H -21.07 V -21.07 h 5.747 V -5.747 H 0 Z"
             style="fill:#ffffff;fill-opacity:1;fill-rule:evenodd;"
             id="path212" /></g></g></g><g
       id="g214"><g
         id="g216"
         clip-path="url(#clipPath220)"><g
           id="g222"
           transform="translate(589.2344,92.0703)"><path
             d="m 0,0 c 0,-39.766 -32.235,-72 -72,-72 -39.765,0 -72,32.234 -72,72 0,39.764 32.235,72 72,72 C -32.235,72 0,39.764 0,0"
             style="fill:#000;fill-opacity:1;fill-rule:nonzero;"
             id="path224" /></g><g
           id="g226"
           transform="translate(527.6094,113.8066)"><path
             d="m 0,0 c -0.746,-6.209 0.106,-12.81 0.335,-19.055 1.272,-0.103 0.594,1.746 1.504,2.006 1.956,-0.719 3.118,-2.23 4.179,-3.845 -1.511,-0.829 -4.285,-0.395 -6.018,-1.002 -0.114,-3.418 -0.033,-7.107 0,-11.032 -0.82,-0.461 -2.247,-0.315 -3.51,-0.334 -0.189,3.726 -0.499,6.73 -0.669,10.698 -1.418,1.033 -4.927,-0.027 -5.682,1.67 0.089,0.469 0.245,0.87 0.334,1.337 1.101,0.767 2.476,0.227 4.178,0.335 1.284,6.888 -2.265,14.344 -0.167,21.06 C -3.589,1.313 -0.992,1.459 0,0"
             style="fill:#ffffff;fill-opacity:1;fill-rule:evenodd;"
             id="path228" /></g><g
           id="g230"
           transform="translate(490.8379,83.7207)"><path
             d="m 0,0 c -1.476,-0.252 -2.626,-0.828 -4.179,-1.003 -2.23,4.622 -3.517,10.188 -5.013,15.544 -2.199,-2.928 -0.332,-9.919 -2.006,-13.371 -1.962,0.066 -3.321,-0.469 -5.349,-0.334 -1.711,2.078 -2.63,4.946 -4.681,6.685 -0.495,-1.779 0.449,-3.562 0.168,-5.683 -1.265,-0.75 -3.112,-1.589 -5.014,-1.17 -1.98,5.027 -1.549,13.022 -1.337,19.724 1.271,0.789 3.273,0.848 5.348,0.835 2.211,-2.914 3.626,-6.625 5.516,-9.862 1.766,4.364 2.35,9.907 5.014,13.372 1.405,-0.598 2.944,0.697 4.346,0.334 1.657,-0.427 2.05,-4.031 2.507,-5.682 C -2.993,13.288 -1.71,5.177 0,0"
             style="fill:#ffffff;fill-opacity:1;fill-rule:evenodd;"
             id="path232" /></g><g
           id="g234"
           transform="translate(564.7158,100.9365)"><path
             d="M 0,0 C -3.927,-2.705 -5.373,-8.777 -6.018,-14.208 -0.881,-12.785 2.92,-5.842 0,0 m -6.185,-19.222 c -0.899,-4.379 0.05,-9.435 0.836,-13.204 -1.546,0.07 -3.449,-0.218 -4.512,0.334 -1.849,4.503 -0.83,11.872 -3.511,15.544 0.127,0.933 1.496,0.622 1.839,1.338 0.787,7.377 1.816,16 7.521,18.553 2.263,1.012 7.44,0.285 9.026,-1.505 C 6.268,0.425 6.528,-2.24 6.519,-4.179 6.475,-12.388 0.196,-17.2 -6.185,-19.222"
             style="fill:#ffffff;fill-opacity:1;fill-rule:evenodd;"
             id="path236" /></g><g
           id="g238"
           transform="translate(509.8926,90.9072)"><path
             d="M 0,0 C 0.38,-0.288 0.934,-0.403 1.671,-0.334 2.53,0.764 3.157,4.874 1.839,6.018 1.198,4.039 0.021,2.599 0,0 M 6.519,9.527 C 6.592,5.22 5.249,2.328 5.516,-2.173 3.857,-2.759 1.782,-2.379 0,-2.173 c -1.906,-3.305 1.499,-6.653 5.015,-5.682 1.511,0.417 2.459,2.602 3.676,0.501 -2.815,-4.024 -11.562,-1.713 -13.037,2.173 -0.162,0.426 -0.313,1.38 -0.335,2.005 -0.208,6.185 3.002,12.079 6.352,14.542 1.003,0.738 4.109,-1.34 4.848,-1.839"
             style="fill:#ffffff;fill-opacity:1;fill-rule:evenodd;"
             id="path240" /></g><g
           id="g242"
           transform="translate(496.6885,92.0771)"><path
             d="m 0,0 c 0.666,-0.113 1.137,-0.423 2.005,-0.334 0.551,1 0.484,3.667 0,4.681 C 0.566,3.667 0.131,1.986 0,0 M 5.85,8.023 C 6.728,5.311 7.113,0.482 6.184,-2.507 4.303,-3.032 2.333,-2.249 0.334,-2.34 -0.738,-5.063 -0.27,-8.799 2.34,-9.359 4.425,-9.808 7.316,-7.421 8.858,-9.526 7.295,-10.688 4.504,-11.236 2.34,-11.198 -7.055,-11.033 -6.356,4.175 -0.836,8.19 0.99,9.52 3.709,8.934 5.85,8.023"
             style="fill:#ffffff;fill-opacity:1;fill-rule:evenodd;"
             id="path244" /></g><g
           id="g246"
           transform="translate(543.6553,82.2158)"><path
             d="m 0,0 c -8.732,-2.745 -9.273,8.09 -8.357,15.545 2.233,0.059 3.193,-1.153 4.68,-1.839 0.21,-3.801 0.061,-7.962 0.835,-11.198 4.361,1.378 3.784,7.693 4.346,12.87 -0.007,0.285 0.125,0.433 0.335,0.501 C 11.072,14.541 3.117,2.97 0,0"
             style="fill:#ffffff;fill-opacity:1;fill-rule:evenodd;"
             id="path248" /></g></g></g><g
       id="g250"><g
         id="g252"
         clip-path="url(#clipPath256)"><g
           id="g258"
           transform="translate(780.874,640.5581)"><path
             d="m 0,0 c 0,-39.765 -32.235,-72 -72,-72 -39.765,0 -72,32.235 -72,72 0,39.765 32.235,72 72,72 C -32.235,72 0,39.765 0,0"
             style="fill:#000;fill-opacity:1;fill-rule:nonzero;"
             id="path260" /></g><g
           id="g262"
           transform="translate(756.374,672.021)"><path
             d="m 0,0 c -2.935,33.81 -49.34,27.8 -49.34,-6.167 0,-16.323 7.551,-27.68 20.265,-36.123 -2.783,-4.601 -4.749,-8.336 -8.811,-14.097 -1.858,-2.636 -7.609,-12.571 -10.573,-12.335 -1.945,0.155 -8.527,11.41 -10.572,14.978 -9.642,16.823 -16.668,41.112 -17.621,59.912 h -18.502 c 2.881,-18.053 6.599,-37.172 14.096,-54.626 5.466,-12.725 18.593,-36.828 31.718,-37.004 8.953,-0.12 16.316,10.872 21.146,16.74 6.701,8.14 10.762,15.54 15.859,22.908 3.856,0.841 8.478,0.92 12.335,1.761 v 12.335 c -19.938,-5.403 -35.302,10.885 -32.6,29.075 3.145,21.17 23.886,0.864 13.216,-14.978 3.234,-3.521 8.298,-5.211 15.86,-4.405 C -1.568,-14.135 0.783,-9.028 0,0"
             style="fill:#ffffff;fill-opacity:1;fill-rule:evenodd;"
             id="path264" /></g></g></g><g
       id="g266"><g
         id="g268"
         clip-path="url(#clipPath272)"><g
           id="g274"
           transform="translate(788.874,390.0703)"><path
             d="m 0,0 c 0,-39.765 -32.235,-72 -72,-72 -39.765,0 -72,32.235 -72,72 0,39.765 32.235,72 72,72 C -32.235,72 0,39.765 0,0"
             style="fill:#000;fill-opacity:1;fill-rule:nonzero;"
             id="path276" /></g><g
           id="g278"
           transform="translate(690.0601,440.4707)"><path
             d="m 0,0 h 6.188 c 1.273,-4.762 2.509,-9.561 3.895,-14.209 1.485,4.55 2.412,9.658 3.897,14.209 h 5.728 c -0.663,-3.907 -2.043,-7.618 -3.207,-11.458 -1.105,-3.646 -2.901,-7.517 -3.438,-11.23 -0.721,-4.987 0.721,-10.318 -0.229,-15.814 H 7.105 c -0.394,5.766 0.536,10.759 0,15.585 C 6.199,-14.763 1.523,-8.207 0.23,-0.688 0.107,-0.504 -0.01,-0.315 0,0"
             style="fill:#ffffff;fill-opacity:1;fill-rule:evenodd;"
             id="path280" /></g><g
           id="g282"
           transform="translate(716.8735,407.0117)"><path
             d="m 0,0 c 3.276,-0.455 2.751,4.086 2.751,8.25 0,5.285 0.527,13.597 -4.355,9.396 C -1.113,14.17 -3.79,0.525 0,0 M -1.375,23.834 C 4.036,24.961 7.459,21.686 8.022,16.958 8.729,11.014 8.488,0.738 6.875,-2.063 4.557,-6.093 -3.504,-7.242 -6.188,-1.834 -8.39,2.606 -7.86,18.531 -5.5,21.542 c 0.865,1.103 2.427,1.937 4.125,2.292"
             style="fill:#ffffff;fill-opacity:1;fill-rule:evenodd;"
             id="path284" /></g><g
           id="g286"
           transform="translate(734.0625,430.8457)"><path
             d="m 0,0 c 0.415,-7.76 -0.856,-17.204 0.688,-23.834 2.164,-0.178 2.795,1.177 3.666,2.291 V 0 H 9.625 V -28.877 H 4.354 v 2.522 c -1.479,-0.978 -4.938,-4.551 -8.021,-2.522 -2.289,1.508 -1.604,8.728 -1.604,13.293 V -0.688 C -4.732,0.761 -1.639,-0.348 0,0"
             style="fill:#ffffff;fill-opacity:1;fill-rule:evenodd;"
             id="path288" /></g><g
           id="g290"
           transform="translate(747.209,367.5107)"><path
             d="M 0,0 C 0.599,1.935 0.121,4.676 -0.687,5.957 -1.699,6.612 -2.706,6.64 -3.896,6.188 -4.901,4.953 -5.443,2.115 -4.813,0 Z"
             style="fill:#ffffff;fill-opacity:1;fill-rule:evenodd;"
             id="path292" /></g><g
           id="g294"
           transform="translate(727.042,373.9277)"><path
             d="m 0,0 c -1.758,0.229 -2.611,-0.446 -3.438,-1.146 v -17.188 c 5.316,-3.764 4.813,3.039 4.813,8.709 C 1.375,-5.214 1.71,-1.054 0,0"
             style="fill:#ffffff;fill-opacity:1;fill-rule:evenodd;"
             id="path296" /></g><g
           id="g298"
           transform="translate(737.3545,357.1973)"><path
             d="m 0,0 c -0.585,5.234 -0.398,16.035 1.375,18.563 2.855,4.066 10.752,3.5 12.834,-1.146 1.485,-3.315 0.275,-6.723 0.687,-11.229 H 5.042 C 4.615,2.825 4.188,-2.625 7.334,-2.75 c 2.198,-0.087 2.846,2.132 2.52,5.5 h 5.042 C 16.36,-9.838 1.102,-9.846 0,0 M -4.125,-1.833 C -4.754,-8.2 -10.284,-8.28 -13.75,-4.125 v -2.521 h -5.041 v 37.125 h 5.041 V 18.792 c 3.289,3.189 8.862,3.89 9.625,-2.291 0.576,-4.661 0.467,-13.61 0,-18.334 m -19.022,-4.813 h -5.042 v 2.521 c -2.239,-2.449 -8.721,-5.394 -9.395,1.375 -0.599,6.008 0.464,17.91 0,22.918 v 0.686 h 5.041 V 8.708 c 0,-4.028 -0.551,-8.181 0.688,-11.229 1.624,-0.583 2.822,1.114 3.666,2.063 v 21.312 h 5.042 z M -38.272,25.21 h -5.959 C -44.765,15.05 -44.308,3.896 -44.46,-6.646 h -5.5 V 25.21 h -5.958 c 0.15,1.682 -0.303,3.969 0.228,5.269 h 17.418 z M 21.405,11.466 c 0,8.738 0.143,18.386 -2.751,23.147 -3.347,5.509 -8.687,5.229 -16.729,5.729 -11.805,0.733 -26.785,0.765 -38.044,0.229 -7.291,-0.347 -15.007,0.188 -19.021,-1.834 -4.853,-2.442 -5.989,-7.648 -6.646,-14.666 -1.002,-10.702 -1.046,-30.274 2.52,-35.752 3.501,-5.375 12.135,-5.215 20.626,-5.5 12.705,-0.425 23.924,-0.496 36.668,0 5.825,0.226 12.705,0.049 16.501,2.063 7.35,3.898 6.876,15.178 6.876,26.584"
             style="fill:#ffffff;fill-opacity:1;fill-rule:evenodd;"
             id="path300" /></g></g></g><g
       id="g302"><g
         id="g304"
         clip-path="url(#clipPath308)"><g
           id="g310"
           transform="translate(170.9053,92.0703)"><path
             d="m 0,0 c 0,-39.766 -32.235,-72 -72,-72 -39.765,0 -72,32.234 -72,72 0,39.765 32.235,72 72,72 C -32.235,72 0,39.765 0,0"
             style="fill:#000;fill-opacity:1;fill-rule:nonzero;"
             id="path312" /></g><g
           id="g314"
           transform="translate(126.6484,100.3984)"><path
             d="M 0,0 C 3.654,-5.389 11.132,2.672 14.862,-1.486 11.69,-7.472 1.398,-5.044 0.495,-12.386 c -0.707,-5.754 7.743,-14.68 11.395,-18.33 1.801,-1.801 9.106,-7.085 14.367,-6.935 -3.702,-5.711 -17.759,-1.067 -16.349,-11.89 -14.693,4.709 -20.56,-4.062 -29.229,-7.927 -1.833,-0.817 -1.693,-0.49 -2.478,-0.991 -0.037,-0.023 -1.194,-0.542 -0.99,-0.495 -18.061,-4.103 -22.316,15.401 -43.101,9.413 -0.714,2.423 -0.914,5.361 -2.477,6.936 -4.87,0.551 -12.146,2.951 -13.376,3.962 0.634,1.488 2.932,1.837 4.459,2.478 4.798,2.014 7.782,4.423 11.889,7.926 1.212,1.034 9.142,10.009 8.422,15.853 -0.963,7.818 -11.256,4.451 -13.871,11.395 0.318,-0.752 1.786,0.369 0.99,0 3.709,1.72 10.114,-3.657 13.873,0.991 -0.719,11.673 -1.74,21.597 2.476,28.733 0.096,0.162 1.2,1.386 0.991,0.992 1.116,2.099 1.646,3.428 5.45,6.44 2.188,1.732 7.679,5.692 14.367,6.44 C -9.288,45.224 5.291,28.263 0,0"
             style="fill:#ffffff;fill-opacity:1;fill-rule:evenodd;"
             id="path316" /></g></g></g></g></svg>
